# xmcd
#
# Track frame offsets:
#	150
#	14020
#	28080
#	38484
#	53766
#	67577
#	76870
#	89076
#	102583
#	115040
#	127364
#	139723
#	149471
#	159826
#	166020
#	178708
#	191402
#
# Disc length: 2746 seconds
#
# Revision: 3
# Processed by: cddbd v1.5.2PL0 Copyright (c) Steve Scherf et al.
# Submitted via: audiograbber 1.83.01
#
DISCID=df0ab811
DTITLE=Various Artist - Country, unlimited collection [CD 2)
DYEAR=1900
DGENRE=Contemporary ChristianChristian Rock
TTITLE0=Willie Nelson - Home is where you're happy
TTITLE1=Willie Nelson - No tomorrow in sight
TTITLE2=Willie Nelson - Broken promises
TTITLE3=Willie Nelson - And so will you my love
TTITLE4=Willie Nelson - You'll always have someone
TTITLE5=Willie Nelson - Waiting time
TTITLE6=Willie Nelson - December day
TTITLE7=Hamk Williams - Jambalaya
TTITLE8=Hamk Williams - Howlin'at the moon
TTITLE9=Hamk Williams - Lost highway
TTITLE10=Hamk Williams and The Country Boys - Never again will I knock on your do
TTITLE10=or
TTITLE11=Dave Dudley - Six days on the road
TTITLE12=Waylon Jennings - White lightning
TTITLE13=Nashville 10 - Singing my song
TTITLE14=Parsy Cline - Crazy
TTITLE15=Ray Price - Let it rain let her cry
TTITLE16=George Jones - A good year for the roses
EXTD=
EXTT0=
EXTT1=
EXTT2=
EXTT3=
EXTT4=
EXTT5=
EXTT6=
EXTT7=
EXTT8=
EXTT9=
EXTT10=
EXTT11=
EXTT12=
EXTT13=
EXTT14=
EXTT15=
EXTT16=
PLAYORDER=
